# xmcd CD database file
#
# Track frame offsets:
#	150
#	8090
#	32510
#	50035
#	70689
#	77260
#	99360
#	116776
#	140035
#	153206
#	172819
#	191412
#	214358
#
# Disc length: 2909 seconds
#
# Revision: 0
# Processed by: cddbd v1.5.2PL0 Copyright (c) Steve Scherf et al.
# Submitted via: CDex 1.51
#
DISCID=a20b5b0d
DTITLE=Bernd Rinser - Southern Swamp Impressions
DYEAR=2008
DGENRE=Blues
TTITLE0=Callin` You
TTITLE1=Struck By Love
TTITLE2=Hangin` On Your Hook
TTITLE3=Turn Off The Tap
TTITLE4=Nothing But
TTITLE5=Manangement Blues
TTITLE6=Love Is
TTITLE7=To Leam The Ways Of Love
TTITLE8=Backbone
TTITLE9=Wolfwoman Blues
TTITLE10=Never Forget
TTITLE11=Walking Under A Crescent Moon
TTITLE12=Blues
EXTD=YEAR: 2008
EXTT0=
EXTT1=
EXTT2=
EXTT3=
EXTT4=
EXTT5=
EXTT6=
EXTT7=
EXTT8=
EXTT9=
EXTT10=
EXTT11=
EXTT12=
PLAYORDER=
